<svg width="26" height="26" viewBox="0 0 26 26" fill="none" xmlns="http://www.w3.org/2000/svg">
<g clip-path="url(#clip0_283_227)">
<path d="M8.27295 12.9997C8.27295 11.746 8.771 10.5436 9.65754 9.65705C10.5441 8.77051 11.7465 8.27246 13.0002 8.27246C14.254 8.27246 15.4564 8.77051 16.3429 9.65705C17.2294 10.5436 17.7275 11.746 17.7275 12.9997C17.7275 14.2535 17.2294 15.4559 16.3429 16.3424C15.4564 17.229 14.254 17.727 13.0002 17.727C11.7465 17.727 10.5441 17.229 9.65754 16.3424C8.771 15.4559 8.27295 14.2535 8.27295 12.9997Z" fill="white"/>
<path d="M13.0591 0C15.2183 0 16.9189 2.23517e-08 18.2827 0.124091C19.6749 0.249364 20.8307 0.511727 21.8636 1.10855C23.1211 1.8346 24.1654 2.87885 24.8915 4.13636C25.4883 5.16927 25.7506 6.32509 25.8759 7.71727C26 9.08109 26 10.7817 26 12.9409V13.0591C26 15.2183 26 16.9189 25.8759 18.2827C25.7506 19.6749 25.4883 20.8307 24.8915 21.8636C24.1654 23.1211 23.1211 24.1654 21.8636 24.8915C20.8307 25.4883 19.6749 25.7506 18.2827 25.8759C16.9189 26 15.2183 26 13.0591 26H12.9409C10.7817 26 9.08109 26 7.71727 25.8759C6.32509 25.7506 5.16927 25.4883 4.13636 24.8915C2.87885 24.1654 1.8346 23.1211 1.10855 21.8636C0.511727 20.8307 0.249364 19.6749 0.124091 18.2827C2.23517e-08 16.9189 0 15.2183 0 13.0591V12.9409C0 10.7817 2.23517e-08 9.08109 0.124091 7.71727C0.249364 6.32509 0.511727 5.16927 1.10855 4.13636C1.8346 2.87885 2.87885 1.8346 4.13636 1.10855C5.16927 0.511727 6.32509 0.249364 7.71727 0.124091C9.08109 2.23517e-08 10.7817 0 12.9409 0H13.0591ZM20.3864 4.43182C20.0729 4.43182 19.7723 4.55633 19.5507 4.77796C19.3291 4.9996 19.2045 5.3002 19.2045 5.61364V5.61836C19.2045 5.9318 19.3291 6.2324 19.5507 6.45403C19.7723 6.67567 20.0729 6.80018 20.3864 6.80018H20.3911C20.7045 6.80018 21.0051 6.67567 21.2268 6.45403C21.4484 6.2324 21.5729 5.9318 21.5729 5.61836V5.61364C21.5729 5.3002 21.4484 4.9996 21.2268 4.77796C21.0051 4.55633 20.7045 4.43182 20.3911 4.43182H20.3864ZM13 5.90909C11.1194 5.90909 9.31577 6.65617 7.98597 7.98597C6.65617 9.31577 5.90909 11.1194 5.90909 13C5.90909 14.8806 6.65617 16.6842 7.98597 18.014C9.31577 19.3438 11.1194 20.0909 13 20.0909C14.8806 20.0909 16.6842 19.3438 18.014 18.014C19.3438 16.6842 20.0909 14.8806 20.0909 13C20.0909 11.1194 19.3438 9.31577 18.014 7.98597C16.6842 6.65617 14.8806 5.90909 13 5.90909Z" fill="white"/>
</g>
<defs>
<clipPath id="clip0_283_227">
<rect width="26" height="26" fill="white"/>
</clipPath>
</defs>
</svg>
