<svg width="32" height="32" viewBox="0 0 32 32" fill="none" xmlns="http://www.w3.org/2000/svg">
<g clip-path="url(#clip0_1961_132)">
<mask id="mask0_1961_132" style="mask-type:luminance" maskUnits="userSpaceOnUse" x="0" y="0" width="32" height="32">
<path d="M32 0H0V32H32V0Z" fill="white"/>
</mask>
<g mask="url(#mask0_1961_132)">
<path d="M16 32C7.1648 32 0 24.8352 0 16C0 7.1648 7.1648 0 16 0C24.8352 0 32 7.1648 32 16C32 24.8352 24.8352 32 16 32Z" fill="url(#paint0_linear_1961_132)"/>
<path d="M16 7.04613C18.9152 7.04613 19.2608 7.05573 20.4128 7.11013C21.4784 7.15813 22.0576 7.33733 22.4416 7.48773C22.9504 7.68613 23.3152 7.92292 23.696 8.30373C24.0768 8.68453 24.3136 9.04932 24.512 9.55813C24.6624 9.94212 24.8384 10.5213 24.8896 11.5869C24.9408 12.7389 24.9536 13.0845 24.9536 15.9997C24.9536 18.9149 24.944 19.2605 24.8896 20.4125C24.8416 21.4781 24.6624 22.0573 24.512 22.4413C24.3136 22.9501 24.0768 23.3149 23.696 23.6957C23.3152 24.0765 22.9504 24.3133 22.4416 24.5117C22.0576 24.6621 21.4784 24.8381 20.4128 24.8893C19.2608 24.9405 18.9152 24.9533 16 24.9533C13.0848 24.9533 12.7392 24.9437 11.5872 24.8893C10.5216 24.8413 9.94239 24.6621 9.55839 24.5117C9.04959 24.3133 8.6848 24.0765 8.304 23.6957C7.9232 23.3149 7.6864 22.9501 7.488 22.4413C7.3376 22.0573 7.1616 21.4781 7.1104 20.4125C7.0592 19.2605 7.0464 18.9149 7.0464 15.9997C7.0464 13.0845 7.056 12.7389 7.1104 11.5869C7.1584 10.5213 7.3376 9.94212 7.488 9.55813C7.6864 9.04932 7.9232 8.68453 8.304 8.30373C8.6848 7.92292 9.04959 7.68613 9.55839 7.48773C9.94239 7.33733 10.5216 7.16133 11.5872 7.11013C12.7392 7.05573 13.0848 7.04613 16 7.04613ZM16 5.07812C13.0336 5.07812 12.6624 5.09093 11.4976 5.14533C10.336 5.19973 9.5424 5.38212 8.84479 5.65412C8.128 5.92932 7.5168 6.30373 6.912 6.91173C6.304 7.51973 5.9328 8.12772 5.6512 8.84772C5.3824 9.54212 5.1968 10.3357 5.1424 11.5005C5.088 12.6653 5.0752 13.0365 5.0752 16.0029C5.0752 18.9693 5.088 19.3405 5.1424 20.5053C5.1968 21.6669 5.3792 22.4605 5.6512 23.1581C5.9296 23.8717 6.304 24.4829 6.912 25.0877C7.52 25.6957 8.128 26.0669 8.848 26.3485C9.5424 26.6173 10.336 26.8029 11.5008 26.8573C12.6656 26.9117 13.0368 26.9245 16.0032 26.9245C18.9696 26.9245 19.3408 26.9117 20.5056 26.8573C21.6672 26.8029 22.4608 26.6205 23.1584 26.3485C23.872 26.0701 24.4832 25.6957 25.088 25.0877C25.696 24.4797 26.0672 23.8717 26.3488 23.1517C26.6176 22.4573 26.8032 21.6637 26.8576 20.4989C26.912 19.3341 26.9248 18.9629 26.9248 15.9965C26.9248 13.0301 26.912 12.6589 26.8576 11.4941C26.8032 10.3325 26.6208 9.53893 26.3488 8.84133C26.0704 8.12773 25.696 7.51653 25.088 6.91173C24.48 6.30373 23.872 5.93253 23.152 5.65093C22.4576 5.38213 21.664 5.19653 20.4992 5.14213C19.3376 5.09093 18.9664 5.07812 16 5.07812Z" fill="white"/>
<path d="M15.9992 10.3906C12.9016 10.3906 10.3896 12.9026 10.3896 16.0002C10.3896 19.0978 12.9016 21.6098 15.9992 21.6098C19.0968 21.6098 21.6088 19.0978 21.6088 16.0002C21.6088 12.9026 19.0968 10.3906 15.9992 10.3906ZM15.9992 19.6418C13.9896 19.6418 12.3576 18.013 12.3576 16.0002C12.3576 13.9874 13.9896 12.3586 15.9992 12.3586C18.0088 12.3586 19.6408 13.9874 19.6408 16.0002C19.6408 18.013 18.0088 19.6418 15.9992 19.6418Z" fill="white"/>
<path d="M21.8306 11.4814C22.5551 11.4814 23.1426 10.894 23.1426 10.1694C23.1426 9.44482 22.5551 8.85742 21.8306 8.85742C21.106 8.85742 20.5186 9.44482 20.5186 10.1694C20.5186 10.894 21.106 11.4814 21.8306 11.4814Z" fill="white"/>
</g>
</g>
<defs>
<linearGradient id="paint0_linear_1961_132" x1="4.6863" y1="27.3137" x2="27.3137" y2="4.6863" gradientUnits="userSpaceOnUse">
<stop stop-color="#FFD521"/>
<stop offset="0.0551048" stop-color="#FFD020"/>
<stop offset="0.1241" stop-color="#FEC01E"/>
<stop offset="0.2004" stop-color="#FCA71B"/>
<stop offset="0.2821" stop-color="#FA8316"/>
<stop offset="0.3681" stop-color="#F85510"/>
<stop offset="0.4563" stop-color="#F51E09"/>
<stop offset="0.5" stop-color="#F30005"/>
<stop offset="0.5035" stop-color="#F20007"/>
<stop offset="0.5966" stop-color="#E1003B"/>
<stop offset="0.6879" stop-color="#D30067"/>
<stop offset="0.7757" stop-color="#C70088"/>
<stop offset="0.8589" stop-color="#BF00A0"/>
<stop offset="0.9357" stop-color="#BB00AF"/>
<stop offset="1" stop-color="#B900B4"/>
</linearGradient>
<clipPath id="clip0_1961_132">
<rect width="32" height="32" fill="white"/>
</clipPath>
</defs>
</svg>
