<svg width="50" height="50" viewBox="0 0 50 50" fill="none" xmlns="http://www.w3.org/2000/svg">
<path fill-rule="evenodd" clip-rule="evenodd" d="M24.9428 49.8856C38.7187 49.8856 49.8856 38.7187 49.8856 24.9428C49.8856 11.1669 38.7187 0 24.9428 0C11.1669 0 0 11.1669 0 24.9428C0 38.7187 11.1669 49.8856 24.9428 49.8856ZM26.1151 16.138C26.4659 15.7877 26.9414 15.5909 27.4371 15.5909C27.9328 15.5909 28.4083 15.7877 28.7591 16.138L36.2419 23.6208C36.5922 23.9716 36.789 24.4471 36.789 24.9428C36.789 25.4386 36.5922 25.914 36.2419 26.2648L28.7591 33.7476C28.5878 33.9314 28.3813 34.0788 28.1518 34.1811C27.9223 34.2833 27.6746 34.3383 27.4234 34.3427C27.1722 34.3472 26.9227 34.301 26.6898 34.2069C26.4569 34.1128 26.2453 33.9728 26.0676 33.7951C25.89 33.6175 25.75 33.4059 25.6559 33.1729C25.5618 32.94 25.5156 32.6905 25.52 32.4393C25.5244 32.1881 25.5794 31.9404 25.6817 31.711C25.7839 31.4815 25.9313 31.275 26.1151 31.1037L30.4053 26.8135H14.9657C14.4695 26.8135 13.9937 26.6164 13.6429 26.2656C13.2921 25.9148 13.095 25.439 13.095 24.9428C13.095 24.4467 13.2921 23.9708 13.6429 23.62C13.9937 23.2692 14.4695 23.0721 14.9657 23.0721H30.4053L26.1151 18.7819C25.7648 18.4312 25.568 17.9557 25.568 17.46C25.568 16.9642 25.7648 16.4888 26.1151 16.138Z" fill="white"/>
</svg>
