<svg width="44" height="44" viewBox="0 0 44 44" fill="none" xmlns="http://www.w3.org/2000/svg">
<path d="M31.1663 33.0001C29.1313 33.0001 27.4997 34.6317 27.4997 36.6667C27.4997 37.6392 27.886 38.5718 28.5736 39.2595C29.2613 39.9471 30.1939 40.3334 31.1663 40.3334C32.1388 40.3334 33.0714 39.9471 33.7591 39.2595C34.4467 38.5718 34.833 37.6392 34.833 36.6667C34.833 35.6943 34.4467 34.7617 33.7591 34.074C33.0714 33.3864 32.1388 33.0001 31.1663 33.0001ZM1.83301 3.66675V7.33341H5.49967L12.0997 21.2484L9.60634 25.7401C9.33134 26.2534 9.16634 26.8584 9.16634 27.5001C9.16634 28.4725 9.55265 29.4052 10.2403 30.0928C10.9279 30.7804 11.8605 31.1667 12.833 31.1667H34.833V27.5001H13.603C13.4815 27.5001 13.3649 27.4518 13.2789 27.3658C13.193 27.2799 13.1447 27.1633 13.1447 27.0417C13.1447 26.9501 13.163 26.8767 13.1997 26.8217L14.8497 23.8334H28.508C29.883 23.8334 31.093 23.0634 31.7163 21.9451L38.2797 10.0834C38.408 9.79008 38.4997 9.47842 38.4997 9.16675C38.4997 8.68052 38.3065 8.2142 37.9627 7.87039C37.6189 7.52657 37.1526 7.33341 36.6663 7.33341H9.55134L7.82801 3.66675M12.833 33.0001C10.798 33.0001 9.16634 34.6317 9.16634 36.6667C9.16634 37.6392 9.55265 38.5718 10.2403 39.2595C10.9279 39.9471 11.8605 40.3334 12.833 40.3334C13.8055 40.3334 14.7381 39.9471 15.4257 39.2595C16.1134 38.5718 16.4997 37.6392 16.4997 36.6667C16.4997 35.6943 16.1134 34.7617 15.4257 34.074C14.7381 33.3864 13.8055 33.0001 12.833 33.0001Z" fill="white"/>
</svg>
